<svg width="32" height="32" viewBox="0 0 24 24" fill="none" stroke="currentColor" stroke-width="2" stroke-linecap="round" stroke-linejoin="round" xmlns="http://www.w3.org/2000/svg">
  <path d="M12 3c1.912 4.967 6.121 9.176 11.088 11.088-4.967 1.912-9.176 6.121-11.088 11.088-1.912-4.967-6.121-9.176-11.088-11.088 4.967-1.912 9.176-6.121 11.088-11.088z M5 3a.5.5 0 0 1 .5.5.5.5 0 0 1-1 0 .5.5 0 0 1 .5-.5z M19 3a.5.5 0 0 1 .5.5.5.5 0 0 1-1 0 .5.5 0 0 1 .5-.5z M5 19a.5.5 0 0 1 .5.5.5.5 0 0 1-1 0 .5.5 0 0 1 .5-.5z M19 19a.5.5 0 0 1 .5.5.5.5 0 0 1-1 0 .5.5 0 0 1 .5-.5z" />
  <path d="M9.81 12.003c.596.223 1.144.57 1.614 1.04.47.47.817 1.018 1.04 1.614.223-.596.57-1.144 1.04-1.614.47-.47 1.018-.817 1.614-1.04-.596-.223-1.144-.57-1.614-1.04-.47-.47-.817-1.018-1.04-1.614-.223.596-.57 1.144-1.04 1.614-.47.47-1.018.817-1.614 1.04z" />
  <path d="M19.006 18c.244.091.468.232.661.424.192.193.333.417.424.661-.091-.244-.232-.468-.424-.661-.193-.192-.417-.333-.661-.424.244-.091.468-.232.661-.424.192-.193.333-.417.424-.661.091.244.232.468.424.661.193.192.417.333.661.424z" />
  <path d="M19.006 6c.244.091.468.232.661.424.192.193.333.417.424.661-.091-.244-.232-.468-.424-.661-.193-.192-.417-.333-.661-.424.244-.091.468-.232.661-.424.192-.193.333-.417.424-.661.091.244.232.468.424.661.193.192.417.333.661.424z" />
  <path d="M4.006 6c.244.091.468.232.661.424.192.193.333.417.424.661-.091-.244-.232-.468-.424-.661-.193-.192-.417-.333-.661-.424.244-.091.468-.232.661-.424.192-.193.333-.417.424-.661.091.244.232.468.424.661.193.192.417.333.661.424z" />
</svg>
